<svg width="16" height="17" viewBox="0 0 16 17" fill="none" xmlns="http://www.w3.org/2000/svg">
<path d="M4.39414 5.62501C5.03066 5.62501 5.64111 5.37216 6.0912 4.92207C6.54128 4.47198 6.79414 3.86153 6.79414 3.22501C6.79414 2.58849 6.54128 1.97804 6.0912 1.52796C5.64111 1.07787 5.03066 0.825012 4.39414 0.825012C3.75762 0.825012 3.14717 1.07787 2.69708 1.52796C2.247 1.97804 1.99414 2.58849 1.99414 3.22501C1.99414 3.86153 2.247 4.47198 2.69708 4.92207C3.14717 5.37216 3.75762 5.62501 4.39414 5.62501ZM-0.00585938 7.83941C-0.00585938 7.05701 0.626941 6.42501 1.40854 6.42501H5.22214C4.94153 6.91154 4.79392 7.46336 4.79414 8.02501C4.79412 8.479 4.89069 8.92779 5.07745 9.34159C5.26421 9.75538 5.53688 10.1247 5.87734 10.425H5.00854C4.55766 10.425 4.11751 10.5626 3.74686 10.8193C3.3762 11.076 3.09268 11.4397 2.93414 11.8618C1.73574 11.569 0.992541 10.9154 0.554941 10.1874C-0.00585938 9.25381 -0.00585938 8.29381 -0.00585938 8.12661V7.83941ZM11.1941 8.02501C11.1944 7.46336 11.0467 6.91154 10.7661 6.42501H14.5797C15.3621 6.42501 15.9941 7.05781 15.9941 7.83941V8.12741C15.9941 8.29301 15.9941 9.25381 15.4341 10.1874C14.9957 10.9154 14.2525 11.569 13.0541 11.8618C12.8956 11.4397 12.6121 11.076 12.2414 10.8193C11.8708 10.5626 11.4306 10.425 10.9797 10.425H10.1109C10.4514 10.1247 10.7241 9.75538 10.9108 9.34159C11.0976 8.92779 11.1942 8.479 11.1941 8.02501ZM13.9941 3.22501C13.9941 3.86153 13.7413 4.47198 13.2912 4.92207C12.8411 5.37216 12.2307 5.62501 11.5941 5.62501C10.9576 5.62501 10.3472 5.37216 9.89708 4.92207C9.447 4.47198 9.19414 3.86153 9.19414 3.22501C9.19414 2.58849 9.447 1.97804 9.89708 1.52796C10.3472 1.07787 10.9576 0.825012 11.5941 0.825012C12.2307 0.825012 12.8411 1.07787 13.2912 1.52796C13.7413 1.97804 13.9941 2.58849 13.9941 3.22501ZM3.59414 12.6394C3.59414 11.857 4.22694 11.225 5.00854 11.225H10.9797C11.7613 11.225 12.3941 11.8578 12.3941 12.6394V12.9274C12.3941 13.093 12.3941 14.0538 11.8341 14.9874C11.2397 15.9746 10.0845 16.825 7.99414 16.825C5.90374 16.825 4.74774 15.9746 4.15414 14.9874C3.59414 14.0538 3.59414 13.0938 3.59414 12.9266V12.6394ZM7.99414 10.425C8.30931 10.425 8.6214 10.3629 8.91258 10.2423C9.20376 10.1217 9.46834 9.94493 9.6912 9.72207C9.91406 9.49921 10.0908 9.23463 10.2115 8.94345C10.3321 8.65227 10.3941 8.34018 10.3941 8.02501C10.3941 7.70984 10.3321 7.39775 10.2115 7.10657C10.0908 6.81539 9.91406 6.55082 9.6912 6.32796C9.46834 6.10509 9.20376 5.92831 8.91258 5.8077C8.6214 5.68709 8.30931 5.62501 7.99414 5.62501C7.35762 5.62501 6.74717 5.87787 6.29708 6.32796C5.847 6.77804 5.59414 7.38849 5.59414 8.02501C5.59414 8.66153 5.847 9.27198 6.29708 9.72207C6.74717 10.1722 7.35762 10.425 7.99414 10.425Z" fill="#74533B"/>
</svg>
