<svg width="24" height="25" viewBox="0 0 24 25" fill="none" xmlns="http://www.w3.org/2000/svg">
<path d="M0 15.3996C0 13.7136 -1.49012e-07 12.8712 0.4044 12.2664C0.579546 12.0042 0.804633 11.7791 1.0668 11.604C1.6716 11.1996 2.5152 11.1996 4.2 11.1996C5.8848 11.1996 6.7284 11.1996 7.3332 11.604C7.59537 11.7791 7.82045 12.0042 7.9956 12.2664C8.4 12.8712 8.4 13.7148 8.4 15.3996V20.1996C8.4 21.8844 8.4 22.728 7.9956 23.3328C7.82045 23.595 7.59537 23.82 7.3332 23.9952C6.7284 24.3996 5.8848 24.3996 4.2 24.3996C2.5152 24.3996 1.6716 24.3996 1.0668 23.9952C0.804633 23.82 0.579546 23.595 0.4044 23.3328C-1.49012e-07 22.728 0 21.8844 0 20.1996V15.3996Z" fill="#74533B"/>
<path fill-rule="evenodd" clip-rule="evenodd" d="M24 9.99954V14.7995C24 19.3247 24 21.5879 22.5936 22.9931C21.1884 24.3995 18.9252 24.3995 14.4 24.3995C12.36 24.3995 10.782 24.3995 9.53279 24.2711C9.93479 23.6411 10.0776 22.9727 10.14 22.3535C10.2 21.7643 10.2 21.0527 10.2 20.2787V15.3203C10.2 14.5463 10.2 13.8347 10.14 13.2455C10.0752 12.6059 9.92399 11.9135 9.49199 11.2655C9.18538 10.8072 8.79148 10.4137 8.33279 10.1075C7.68479 9.67554 6.99359 9.52434 6.35279 9.45954C5.83641 9.41536 5.31824 9.39534 4.79999 9.39954C4.80239 5.27154 4.86359 3.14754 6.20639 1.80594C7.61159 0.399536 9.87479 0.399536 14.4 0.399536C18.9252 0.399536 21.1884 0.399536 22.5936 1.80594C24 3.21114 24 5.47434 24 9.99954ZM11.1 20.7995C11.1 20.5608 11.1948 20.3319 11.3636 20.1631C11.5324 19.9944 11.7613 19.8995 12 19.8995H18C18.2387 19.8995 18.4676 19.9944 18.6364 20.1631C18.8052 20.3319 18.9 20.5608 18.9 20.7995C18.9 21.0382 18.8052 21.2672 18.6364 21.4359C18.4676 21.6047 18.2387 21.6995 18 21.6995H12C11.7613 21.6995 11.5324 21.6047 11.3636 21.4359C11.1948 21.2672 11.1 21.0382 11.1 20.7995Z" fill="#74533B"/>
</svg>
