<svg width="13" height="12" viewBox="0 0 13 12" fill="none" xmlns="http://www.w3.org/2000/svg">
<path d="M12.8291 4.18352C12.8291 7.93352 7.26892 10.9689 7.03214 11.0942C6.96973 11.1278 6.89997 11.1454 6.8291 11.1454C6.75824 11.1454 6.68848 11.1278 6.62607 11.0942C6.38928 10.9689 0.829102 7.93352 0.829102 4.18352C0.830094 3.30293 1.18035 2.45868 1.80302 1.83601C2.4257 1.21334 3.26994 0.863084 4.15053 0.862091C5.25678 0.862091 6.22535 1.33781 6.8291 2.14191C7.43285 1.33781 8.40142 0.862091 9.50767 0.862091C10.3883 0.863084 11.2325 1.21334 11.8552 1.83601C12.4779 2.45868 12.8281 3.30293 12.8291 4.18352Z" fill="white"/>
</svg>
