<svg width="21" height="21" viewBox="0 0 21 21" fill="none" xmlns="http://www.w3.org/2000/svg">
<path d="M10.4821 4.1886L2.6665 11.7158V19.3242C2.6665 19.6558 2.80374 19.9739 3.04802 20.2083C3.29231 20.4428 3.62363 20.5746 3.9691 20.5746H8.52817V14.3228H12.4359V20.5746H16.995C17.3405 20.5746 17.6718 20.4428 17.9161 20.2083C18.1604 19.9739 18.2976 19.6558 18.2976 19.3242V11.672L10.4821 4.1886Z" fill="#74533B"/>
<path d="M20.2514 11.1969C20.1657 11.1974 20.0807 11.1816 20.0013 11.1505C19.922 11.1194 19.8498 11.0735 19.789 11.0156L10.4819 2.07551L1.17491 11.0156C1.05032 11.118 0.89005 11.1715 0.726134 11.1654C0.562218 11.1594 0.406728 11.0941 0.290736 10.9828C0.174744 10.8715 0.106793 10.7222 0.100461 10.5649C0.09413 10.4075 0.149885 10.2537 0.256584 10.1341L10.026 0.756383C10.1481 0.639942 10.3131 0.574585 10.4852 0.574585C10.6573 0.574585 10.8223 0.639942 10.9444 0.756383L20.7138 10.1341C20.8034 10.2218 20.8641 10.333 20.8883 10.4537C20.9124 10.5744 20.899 10.6992 20.8497 10.8126C20.8003 10.9261 20.7173 11.023 20.6108 11.0913C20.5044 11.1597 20.3794 11.1964 20.2514 11.1969Z" fill="#74533B"/>
</svg>
