<svg width="19" height="17" viewBox="0 0 19 17" fill="none" xmlns="http://www.w3.org/2000/svg">
<path d="M18.5 5.66922C18.5 11.2942 10.1597 15.8473 9.80455 16.0353C9.71094 16.0856 9.6063 16.112 9.5 16.112C9.3937 16.112 9.28906 16.0856 9.19545 16.0353C8.84027 15.8473 0.5 11.2942 0.5 5.66922C0.501489 4.34833 1.02687 3.08196 1.96088 2.14795C2.89489 1.21394 4.16125 0.688562 5.48214 0.687073C7.14152 0.687073 8.59437 1.40064 9.5 2.6068C10.4056 1.40064 11.8585 0.687073 13.5179 0.687073C14.8387 0.688562 16.1051 1.21394 17.0391 2.14795C17.9731 3.08196 18.4985 4.34833 18.5 5.66922Z" fill="#74533B"/>
</svg>
