<svg width="17" height="19" viewBox="0 0 17 19" fill="none" xmlns="http://www.w3.org/2000/svg">
<path d="M16.5 0.399536V12.8995C16.5 13.8278 16.1895 14.718 15.6367 15.3744C15.084 16.0308 14.3343 16.3995 13.5526 16.3995C12.7709 16.3995 12.0213 16.0308 11.4685 15.3744C10.9158 14.718 10.6053 13.8278 10.6053 12.8995C10.6053 11.9713 10.9158 11.081 11.4685 10.4247C12.0213 9.76829 12.7709 9.39954 13.5526 9.39954C14.0074 9.39954 14.4368 9.51954 14.8158 9.73954V3.86954L6.39474 5.99954V14.8995C6.39474 15.8278 6.08421 16.718 5.53147 17.3744C4.97873 18.0308 4.22906 18.3995 3.44737 18.3995C2.66568 18.3995 1.916 18.0308 1.36326 17.3744C0.810525 16.718 0.5 15.8278 0.5 14.8995C0.5 13.9713 0.810525 13.081 1.36326 12.4247C1.916 11.7683 2.66568 11.3995 3.44737 11.3995C3.90211 11.3995 4.33158 11.5195 4.71053 11.7395V3.39954L16.5 0.399536Z" fill="#74533B"/>
</svg>
