<svg width="16" height="19" viewBox="0 0 16 19" fill="none" xmlns="http://www.w3.org/2000/svg">
<path d="M15.3155 14.3751L15.1407 14.2209C14.6447 13.779 14.2107 13.2723 13.8502 12.7145C13.4565 11.9446 13.2205 11.1038 13.1561 10.2415V7.70162C13.1595 6.34718 12.6682 5.03811 11.7745 4.02037C10.8808 3.00263 9.64615 2.34628 8.30262 2.17463V1.51139C8.30262 1.32935 8.23031 1.15477 8.10159 1.02605C7.97287 0.897327 7.79829 0.825012 7.61625 0.825012C7.43421 0.825012 7.25963 0.897327 7.13091 1.02605C7.00219 1.15477 6.92987 1.32935 6.92987 1.51139V2.18491C5.59839 2.36893 4.3787 3.02926 3.49673 4.04358C2.61475 5.0579 2.13025 6.35748 2.13296 7.70162V10.2415C2.06856 11.1038 1.83259 11.9446 1.43887 12.7145C1.08457 13.271 0.65748 13.7776 0.168948 14.2209L-0.00585938 14.3751V15.825H15.3155V14.3751Z" fill="#74533B"/>
<path d="M6.20142 16.825C6.24997 17.176 6.42386 17.4975 6.691 17.7302C6.95813 17.9629 7.30045 18.0911 7.65473 18.0911C8.00902 18.0911 8.35134 17.9629 8.61847 17.7302C8.8856 17.4975 9.0595 17.176 9.10805 16.825H6.20142Z" fill="#74533B"/>
</svg>
