<svg width="19" height="19" viewBox="0 0 19 19" fill="none" xmlns="http://www.w3.org/2000/svg">
<path d="M13.1001 7.59935C13.1001 8.55412 12.7208 9.46978 12.0457 10.1449C11.3705 10.82 10.4549 11.1993 9.50011 11.1993C8.54534 11.1993 7.62967 10.82 6.95455 10.1449C6.27943 9.46978 5.90015 8.55412 5.90015 7.59935C5.90015 6.64458 6.27943 5.72892 6.95455 5.05379C7.62967 4.37867 8.54534 3.99939 9.50011 3.99939C10.4549 3.99939 11.3705 4.37867 12.0457 5.05379C12.7208 5.72892 13.1001 6.64458 13.1001 7.59935Z" fill="#74533B"/>
<path fill-rule="evenodd" clip-rule="evenodd" d="M9.13283 18.3921C4.33273 18.1995 0.500122 14.2468 0.500122 9.39944C0.500122 4.42879 4.52938 0.399536 9.50002 0.399536C14.4707 0.399536 18.4999 4.42879 18.4999 9.39944C18.4999 14.3701 14.4707 18.3993 9.50002 18.3993C9.45892 18.3996 9.41782 18.3996 9.37672 18.3993C9.29527 18.3993 9.21383 18.3966 9.13283 18.3921ZM3.72479 15.0784C3.6575 14.8851 3.63459 14.6792 3.65777 14.4759C3.68096 14.2726 3.74963 14.0771 3.8587 13.904C3.96776 13.7309 4.11442 13.5845 4.28779 13.4758C4.46115 13.3671 4.65677 13.2989 4.86012 13.2761C8.36829 12.8878 10.6534 12.9229 14.1444 13.2842C14.348 13.3054 14.5441 13.3728 14.7178 13.4813C14.8914 13.5897 15.038 13.7364 15.1464 13.9101C15.2548 14.0837 15.3222 14.2798 15.3433 14.4835C15.3645 14.6871 15.3389 14.8929 15.2685 15.0851C16.7647 13.5713 17.6026 11.5279 17.5999 9.39944C17.5999 4.92604 13.9734 1.29953 9.50002 1.29953C5.02662 1.29953 1.40011 4.92604 1.40011 9.39944C1.40011 11.6116 2.28705 13.6168 3.72479 15.0784Z" fill="#74533B"/>
</svg>
