<svg width="14" height="15" viewBox="0 0 14 15" fill="none" xmlns="http://www.w3.org/2000/svg">
<path d="M6.99414 6.82404C6.16947 6.82404 5.46314 6.53004 4.87514 5.94204C4.28714 5.35404 3.99347 4.64804 3.99414 3.82404C3.99481 3.00004 4.28847 2.29337 4.87514 1.70404C5.46181 1.11471 6.16814 0.821707 6.99414 0.82504C7.82014 0.828374 8.52647 1.12171 9.11314 1.70504C9.69981 2.28837 9.99347 2.99504 9.99414 3.82504C9.99481 4.65504 9.70114 5.36104 9.11314 5.94304C8.52514 6.52504 7.81881 6.81804 6.99414 6.82404ZM-0.00585938 14.055V12.409C-0.00585938 11.9964 0.114141 11.6104 0.354141 11.251C0.594141 10.8917 0.917474 10.6124 1.32414 10.413C2.26814 9.96037 3.21247 9.62104 4.15714 9.39504C5.10181 9.16904 6.04747 9.05571 6.99414 9.05504C7.94081 9.05437 8.88647 9.16771 9.83114 9.39504C10.7758 9.62237 11.7198 9.96171 12.6631 10.413C13.0698 10.6117 13.3931 10.891 13.6331 11.251C13.8731 11.611 13.9935 11.9967 13.9941 12.408V14.054L-0.00585938 14.055Z" fill="#74533B"/>
</svg>
