<svg width="9" height="15" viewBox="0 0 9 15" fill="none" xmlns="http://www.w3.org/2000/svg">
<path d="M0.699718 0.892284C0.503838 1.08822 0.393799 1.35394 0.393799 1.631C0.393799 1.90805 0.503838 2.17377 0.699718 2.36971L5.87174 7.54173L0.699718 12.7138C0.509389 12.9108 0.404074 13.1748 0.406455 13.4487C0.408835 13.7227 0.518721 13.9847 0.712446 14.1785C0.90617 14.3722 1.16823 14.4821 1.44219 14.4844C1.71615 14.4868 1.98008 14.3815 2.17714 14.1912L8.08788 8.28045C8.28376 8.08451 8.3938 7.81879 8.3938 7.54173C8.3938 7.26468 8.28376 6.99896 8.08788 6.80302L2.17714 0.892284C1.9812 0.696404 1.71549 0.586365 1.43843 0.586365C1.16137 0.586365 0.895657 0.696404 0.699718 0.892284Z" fill="#B0927E"/>
</svg>
