<svg width="20" height="19" viewBox="0 0 20 19" fill="none" xmlns="http://www.w3.org/2000/svg">
<path d="M17.7289 18.8871L11.0615 12.5871C10.5323 12.9871 9.92375 13.3038 9.23584 13.5371C8.54792 13.7704 7.81591 13.8871 7.0398 13.8871C5.11716 13.8871 3.49016 13.2578 2.15877 11.9991C0.827394 10.7404 0.161351 9.20308 0.160645 7.38708C0.15994 5.57108 0.825983 4.03375 2.15877 2.77508C3.49157 1.51642 5.11858 0.887085 7.0398 0.887085C8.96102 0.887085 10.5884 1.51642 11.9219 2.77508C13.2554 4.03375 13.9211 5.57108 13.919 7.38708C13.919 8.12042 13.7955 8.81208 13.5485 9.46208C13.3016 10.1121 12.9665 10.6871 12.5431 11.1871L19.2106 17.4871L17.7289 18.8871ZM7.0398 11.8871C8.36271 11.8871 9.48737 11.4498 10.4138 10.5751C11.3402 9.70042 11.803 8.63775 11.8023 7.38708C11.8016 6.13642 11.3387 5.07409 10.4138 4.20009C9.48878 3.32609 8.36413 2.88842 7.0398 2.88708C5.71547 2.88575 4.59117 3.32342 3.6669 4.20009C2.74262 5.07675 2.27942 6.13908 2.27731 7.38708C2.27519 8.63509 2.73839 9.69775 3.6669 10.5751C4.59541 11.4524 5.71971 11.8898 7.0398 11.8871Z" fill="#A59081"/>
</svg>
