<svg width="13" height="13" viewBox="0 0 13 13" fill="none" xmlns="http://www.w3.org/2000/svg">
<path d="M5.32824 12.2629L5.08824 10.3325C4.95824 10.2822 4.83584 10.2219 4.72104 10.1515C4.60624 10.0811 4.49364 10.0057 4.38324 9.92527L2.59824 10.6793L0.948242 7.8139L2.49324 6.63756C2.48324 6.56718 2.47824 6.49942 2.47824 6.43427V6.02707C2.47824 5.96152 2.48324 5.89356 2.49324 5.82318L0.948242 4.64684L2.59824 1.78141L4.38324 2.53547C4.49324 2.45503 4.60824 2.37963 4.72824 2.30925C4.84824 2.23887 4.96824 2.17854 5.08824 2.12827L5.32824 0.197876H8.62824L8.86824 2.12827C8.99824 2.17854 9.12084 2.23887 9.23604 2.30925C9.35124 2.37963 9.46364 2.45503 9.57324 2.53547L11.3582 1.78141L13.0082 4.64684L11.4632 5.82318C11.4732 5.89356 11.4782 5.96152 11.4782 6.02707V6.43366C11.4782 6.49922 11.4682 6.56718 11.4482 6.63756L12.9932 7.8139L11.3432 10.6793L9.57324 9.92527C9.46324 10.0057 9.34824 10.0811 9.22824 10.1515C9.10824 10.2219 8.98824 10.2822 8.86824 10.3325L8.62824 12.2629H5.32824ZM7.00824 8.34174C7.58824 8.34174 8.08324 8.13563 8.49324 7.72341C8.90324 7.31119 9.10824 6.81351 9.10824 6.23037C9.10824 5.64723 8.90324 5.14955 8.49324 4.73733C8.08324 4.32511 7.58824 4.119 7.00824 4.119C6.41824 4.119 5.92064 4.32511 5.51544 4.73733C5.11024 5.14955 4.90784 5.64723 4.90824 6.23037C4.90864 6.81351 5.11124 7.31119 5.51604 7.72341C5.92084 8.13563 6.41824 8.34174 7.00824 8.34174Z" fill="#74533B"/>
</svg>
